<svg width="54" height="54" viewBox="0 0 54 54" fill="none" xmlns="http://www.w3.org/2000/svg">
<g filter="url(#filter0_d_177_2037)">
<rect x="4" width="46" height="46" rx="23" fill="#101010"/>
<rect x="4.5" y="0.5" width="45" height="45" rx="22.5" stroke="#444444"/>
</g>
<path d="M34.32 24.0001C36.92 24.0001 38 23.0001 37.04 19.7201C36.39 17.5101 34.49 15.6101 32.28 14.9601C29 14.0001 28 15.0801 28 17.6801V20.5601C28 23.0001 29 24.0001 31 24.0001H34.32Z" stroke="#444444" stroke-width="1.5" stroke-linecap="round" stroke-linejoin="round"/>
<path d="M35.9994 26.7C35.0694 31.33 30.6294 34.69 25.5794 33.87C21.7894 33.26 18.7394 30.21 18.1194 26.42C17.3094 21.39 20.6494 16.95 25.2594 16.01" stroke="#444444" stroke-width="1.5" stroke-linecap="round" stroke-linejoin="round"/>
<defs>
<filter id="filter0_d_177_2037" x="0" y="0" width="54" height="54" filterUnits="userSpaceOnUse" color-interpolation-filters="sRGB">
<feFlood flood-opacity="0" result="BackgroundImageFix"/>
<feColorMatrix in="SourceAlpha" type="matrix" values="0 0 0 0 0 0 0 0 0 0 0 0 0 0 0 0 0 0 127 0" result="hardAlpha"/>
<feOffset dy="4"/>
<feGaussianBlur stdDeviation="2"/>
<feComposite in2="hardAlpha" operator="out"/>
<feColorMatrix type="matrix" values="0 0 0 0 0 0 0 0 0 0 0 0 0 0 0 0 0 0 0.25 0"/>
<feBlend mode="normal" in2="BackgroundImageFix" result="effect1_dropShadow_177_2037"/>
<feBlend mode="normal" in="SourceGraphic" in2="effect1_dropShadow_177_2037" result="shape"/>
</filter>
</defs>
</svg>
