<svg width="54" height="54" viewBox="0 0 54 54" fill="none" xmlns="http://www.w3.org/2000/svg">
<g filter="url(#filter0_d_177_2025)">
<rect x="4" width="46" height="46" rx="23" fill="#101010"/>
<rect x="4.5" y="0.5" width="45" height="45" rx="22.5" stroke="#444444"/>
</g>
<path d="M23.9995 24C23.3395 24.33 22.7895 24.82 22.3795 25.43C22.1495 25.78 22.1495 26.22 22.3795 26.57C22.7895 27.18 23.3395 27.67 23.9995 28" stroke="#444444" stroke-width="1.5" stroke-linecap="round" stroke-linejoin="round"/>
<path d="M30.2109 24C30.8709 24.33 31.4209 24.82 31.8309 25.43C32.0609 25.78 32.0609 26.22 31.8309 26.57C31.4209 27.18 30.8709 27.67 30.2109 28" stroke="#444444" stroke-width="1.5" stroke-linecap="round" stroke-linejoin="round"/>
<path d="M24 33H30C35 33 37 31 37 26V20C37 15 35 13 30 13H24C19 13 17 15 17 20V26C17 31 19 33 24 33Z" stroke="#444444" stroke-width="1.5" stroke-linecap="round" stroke-linejoin="round"/>
<path d="M17.2305 19.01L36.4505 19" stroke="#444444" stroke-width="1.5" stroke-linecap="round" stroke-linejoin="round"/>
<defs>
<filter id="filter0_d_177_2025" x="0" y="0" width="54" height="54" filterUnits="userSpaceOnUse" color-interpolation-filters="sRGB">
<feFlood flood-opacity="0" result="BackgroundImageFix"/>
<feColorMatrix in="SourceAlpha" type="matrix" values="0 0 0 0 0 0 0 0 0 0 0 0 0 0 0 0 0 0 127 0" result="hardAlpha"/>
<feOffset dy="4"/>
<feGaussianBlur stdDeviation="2"/>
<feComposite in2="hardAlpha" operator="out"/>
<feColorMatrix type="matrix" values="0 0 0 0 0 0 0 0 0 0 0 0 0 0 0 0 0 0 0.25 0"/>
<feBlend mode="normal" in2="BackgroundImageFix" result="effect1_dropShadow_177_2025"/>
<feBlend mode="normal" in="SourceGraphic" in2="effect1_dropShadow_177_2025" result="shape"/>
</filter>
</defs>
</svg>
