<svg width="60" height="60" viewBox="0 0 60 60" fill="none" xmlns="http://www.w3.org/2000/svg">
<mask id="mask0_167_801" style="mask-type:alpha" maskUnits="userSpaceOnUse" x="0" y="0" width="60" height="60">
<path d="M0 30C0 13.4315 13.4315 0 30 0C46.5685 0 60 13.4315 60 30C60 46.5685 46.5685 60 30 60C13.4315 60 0 46.5685 0 30Z" fill="white"/>
</mask>
<g mask="url(#mask0_167_801)">
<path d="M0 0H60V60H0V0Z" fill="#A3A948"/>
<path d="M59.2556 6.85784C73.7966 20.4175 74.5921 43.1976 61.0324 57.7385C47.4727 72.2795 24.6927 73.075 10.1517 59.5153C-4.38923 45.9557 -5.18472 23.1756 8.37494 8.63464C21.9346 -5.90632 44.7147 -6.70182 59.2556 6.85784Z" fill="url(#paint0_angular_167_801)"/>
<path d="M42.6621 41.8116C42.4601 43.4569 41.3949 44.9278 39.7009 45.9007C38.0069 46.8736 35.8229 47.2688 33.6292 46.9995C31.4355 46.7301 29.412 45.8182 28.0037 44.4644C26.5954 43.1106 25.9177 41.4257 26.1197 39.7805" fill="white"/>
<path d="M43.0538 31.7846C43.166 30.871 43.8124 30.1986 44.4976 30.2827C45.1828 30.3669 45.6473 31.1757 45.5352 32.0893C45.423 33.0029 44.7766 33.6753 44.0914 33.5912C43.4062 33.5071 42.9416 32.6982 43.0538 31.7846Z" fill="white"/>
<path d="M26.5108 29.7535C26.623 28.8399 27.2694 28.1675 27.9546 28.2516C28.6398 28.3357 29.1044 29.1446 28.9922 30.0582C28.88 30.9718 28.2336 31.6442 27.5484 31.5601C26.8632 31.4759 26.3987 30.6671 26.5108 29.7535Z" fill="white"/>
</g>
<defs>
<radialGradient id="paint0_angular_167_801" cx="0" cy="0" r="1" gradientUnits="userSpaceOnUse" gradientTransform="translate(34.7037 33.1866) rotate(-137) scale(36)">
<stop stop-color="#BCE5CB"/>
<stop offset="1" stop-color="#E4FFEE"/>
</radialGradient>
</defs>
</svg>
