<svg width="56" height="56" viewBox="0 0 56 56" fill="none" xmlns="http://www.w3.org/2000/svg">
<mask id="mask0_153_757" style="mask-type:alpha" maskUnits="userSpaceOnUse" x="0" y="0" width="56" height="56">
<path d="M0 28C0 12.536 12.536 0 28 0C43.464 0 56 12.536 56 28C56 43.464 43.464 56 28 56C12.536 56 0 43.464 0 28Z" fill="white"/>
</mask>
<g mask="url(#mask0_153_757)">
<path d="M0 0H56V56H0V0Z" fill="#A3A948"/>
<path d="M55.3056 6.40077C68.8772 19.0565 69.6197 40.3178 56.964 53.8894C44.3083 67.461 23.0469 68.2034 9.47534 55.5477C-4.09622 42.8921 -4.83868 21.6307 7.817 8.05911C20.4727 -5.51245 41.7341 -6.25492 55.3056 6.40077Z" fill="white"/>
<path d="M39.8184 39.0244C39.6298 40.56 38.6357 41.9328 37.0546 42.8408C35.4735 43.7489 33.4351 44.1178 31.3877 43.8664C29.3402 43.615 27.4516 42.7639 26.1371 41.5003C24.8227 40.2368 24.1902 38.6642 24.3788 37.1287" fill="#161C2D"/>
<path d="M40.1839 29.6659C40.2886 28.8131 40.892 28.1855 41.5315 28.2641C42.171 28.3426 42.6046 29.0975 42.4999 29.9502C42.3952 30.8029 41.7919 31.4305 41.1523 31.352C40.5128 31.2735 40.0792 30.5186 40.1839 29.6659Z" fill="#161C2D"/>
<path d="M24.7445 27.7701C24.8492 26.9174 25.4525 26.2898 26.092 26.3683C26.7316 26.4468 27.1651 27.2018 27.0604 28.0545C26.9557 28.9072 26.3524 29.5348 25.7129 29.4562C25.0734 29.3777 24.6398 28.6228 24.7445 27.7701Z" fill="#161C2D"/>
</g>
</svg>
