<svg width="46" height="46" viewBox="0 0 46 46" fill="none" xmlns="http://www.w3.org/2000/svg">
<rect x="0.5" y="0.5" width="45" height="45" rx="22.5" fill="white" stroke="#E7E7E7"/>
<path d="M23.5007 33.0001H15.0807C13.9207 33.0001 12.9707 32.0701 12.9707 30.9301V16.0901C12.9707 13.4701 14.9207 12.2801 17.3107 13.4501L21.7507 15.6301C22.7107 16.1001 23.5007 17.3501 23.5007 18.4101V33.0001Z" stroke="#101010" stroke-width="1.5" stroke-linecap="round" stroke-linejoin="round"/>
<path d="M32.97 26.0602V29.8402C32.97 32.0002 31.97 33.0002 29.81 33.0002H23.5V21.4202L23.97 21.5202L28.47 22.5302L30.5 22.9802C31.82 23.2702 32.9 23.9502 32.96 25.8702C32.97 25.9302 32.97 25.9902 32.97 26.0602Z" stroke="#101010" stroke-width="1.5" stroke-linecap="round" stroke-linejoin="round"/>
<path d="M16.5 20.0001H19.97" stroke="#101010" stroke-width="1.5" stroke-linecap="round" stroke-linejoin="round"/>
<path d="M16.5 24.0001H19.97" stroke="#101010" stroke-width="1.5" stroke-linecap="round" stroke-linejoin="round"/>
<path d="M28.4707 22.5301V25.7501C28.4707 26.9901 27.4607 28.0001 26.2207 28.0001C24.9807 28.0001 23.9707 26.9901 23.9707 25.7501V21.5201L28.4707 22.5301Z" stroke="#101010" stroke-width="1.5" stroke-linecap="round" stroke-linejoin="round"/>
<path d="M32.9607 25.8702C32.9007 27.0502 31.9207 28.0002 30.7207 28.0002C29.4807 28.0002 28.4707 26.9902 28.4707 25.7502V22.5302L30.5007 22.9802C31.8207 23.2702 32.9007 23.9502 32.9607 25.8702Z" stroke="#101010" stroke-width="1.5" stroke-linecap="round" stroke-linejoin="round"/>
</svg>
