<svg width="46" height="46" viewBox="0 0 46 46" fill="none" xmlns="http://www.w3.org/2000/svg">
<rect x="0.5" y="0.5" width="45" height="45" rx="22.5" fill="white" stroke="#E7E7E7"/>
<path d="M19.9995 24C19.3395 24.33 18.7895 24.82 18.3795 25.43C18.1495 25.78 18.1495 26.22 18.3795 26.57C18.7895 27.18 19.3395 27.67 19.9995 28" stroke="#101010" stroke-width="1.5" stroke-linecap="round" stroke-linejoin="round"/>
<path d="M26.2109 24C26.8709 24.33 27.4209 24.82 27.8309 25.43C28.0609 25.78 28.0609 26.22 27.8309 26.57C27.4209 27.18 26.8709 27.67 26.2109 28" stroke="#101010" stroke-width="1.5" stroke-linecap="round" stroke-linejoin="round"/>
<path d="M20 33H26C31 33 33 31 33 26V20C33 15 31 13 26 13H20C15 13 13 15 13 20V26C13 31 15 33 20 33Z" stroke="#101010" stroke-width="1.5" stroke-linecap="round" stroke-linejoin="round"/>
<path d="M13.2305 19.01L32.4505 19" stroke="#101010" stroke-width="1.5" stroke-linecap="round" stroke-linejoin="round"/>
</svg>
